# xmcd CD database file
#
# Track frame offsets:
#	150
#	15184
#	32601
#	43104
#	49922
#	72690
#	91873
#	111752
#	116937
#	134813
#	152284
#
# Disc length: 2270 seconds
#
# Revision: 0
# Processed by: cddbd v1.5.2PL0 Copyright (c) Steve Scherf et al.
# Submitted via: CDex 1.70beta2
#
DISCID=9208dc0b
DTITLE=Wojtek Mazolewski Quintet - Wojtek w Czechoslowacji
DYEAR=2011
DGENRE=Jazz
TTITLE0=Wojtek w Czechoslowacji
TTITLE1=Newcomer ( reggae)
TTITLE2=Afrobit
TTITLE3=Freedom Warriors
TTITLE4=Planeta guzikow
TTITLE5=Pola Kola Kula
TTITLE6=Czy jest cos do jedzenia
TTITLE7=Skit ( by Maceo Wyro )
TTITLE8=Chase the devil
TTITLE9=Planeta guzikow ( reggae )
TTITLE10=Nionio
EXTD=YEAR: 2011
EXTT0=
EXTT1=
EXTT2=
EXTT3=
EXTT4=
EXTT5=
EXTT6=
EXTT7=
EXTT8=
EXTT9=
EXTT10=
PLAYORDER=
